<svg width="283" height="248" viewBox="0 0 283 248" fill="none" xmlns="http://www.w3.org/2000/svg">
<path d="M107.663 236.506C92.6763 241.035 77.544 243.127 61.4032 240.512C43.4126 237.595 27.8082 224.464 18.9911 211.369C15.7151 206.505 13.107 201.07 13.4478 195.47C14.2408 182.531 28.5721 181.085 40.7372 183.178C47.5946 184.355 53.8913 187.034 60.1164 189.687C70.4515 194.095 82.575 196.263 91.8408 202.373C94.95 204.429 97.2849 206.899 100.898 208.395C106.518 210.723 112.933 211.823 118.705 213.942C123.634 215.761 129.143 218.752 129.15 223.33C129.151 228.025 123.408 231.017 118.361 232.886C114.79 234.218 111.233 235.432 107.663 236.506Z" fill="url(#paint0_linear_1_1449)"/>
<path d="M52.5003 69.6173C77.0513 38.7589 127.818 26.3686 168.968 37.9707C188.811 43.5682 205.44 55.2238 220.778 67.3234C234.299 77.9875 247.415 89.4897 256.648 103.199C262.952 112.557 267.464 123.774 270.651 134.246C275.414 149.926 271.088 170.13 247.323 168.65C241.747 168.303 236.923 166.593 231.708 165.097C227.49 163.884 223.356 164.611 218.977 164.019C207.953 162.53 197.333 159.068 187.291 155.014C166.826 146.744 148.126 135.507 127.079 128.26C109.831 122.328 91.4116 119.266 72.8142 119.238C64.9683 119.227 56.7187 119.695 49.7004 116.703C32.4022 109.322 40.1811 89.4173 46.6414 78.2204C48.3529 75.238 50.3108 72.363 52.5003 69.6173V69.6173Z" fill="url(#paint1_linear_1_1449)"/>
<path d="M244.992 74.2751C249.034 77.3974 264.915 85.921 265.22 75.9185C265.292 73.4267 263.967 71.0071 262.164 69.1823C260.1 67.0877 257.761 65.9889 256.15 63.5486C254.178 60.6022 251.934 57.8329 249.446 55.2767C244.361 49.9563 238.423 45.0405 231.218 42.8502C226.165 41.3158 217.61 41.7017 215.209 47.2253C211.712 55.2662 226.665 56.7395 231.225 59.6699C235.553 62.4435 238.004 67.2095 241.432 70.9972C242.515 72.1915 243.707 73.2889 244.992 74.2751V74.2751Z" fill="url(#paint2_linear_1_1449)"/>
<path d="M170.252 64.4945C178.813 68.7935 185.236 75.2284 193.041 80.4109C206.037 89.0378 223.849 90.8027 238.752 96.8022C253.948 102.923 265.422 112.436 270.61 126.147C277.312 143.845 277.949 164.891 272.255 183.085C265.984 203.113 251.258 216.416 229.726 225.288C208.207 234.154 184.368 238.292 160.592 239.146C158.298 239.23 156.007 239.275 153.708 239.287C102.056 239.543 33.3053 224.037 15.7202 176.713C15.559 176.281 15.4045 175.848 15.2496 175.41C13.4376 170.137 12.3722 164.699 12.0761 159.21C10.9701 139.753 14.9628 118.277 22.9609 100.037C28.3404 87.7569 39.9242 77.3736 52.1305 69.9753C69.2801 59.5816 90.2052 56.929 111.032 55.682C126.454 54.7591 143.799 54.4219 158.383 59.4531C162.481 60.8783 166.449 62.5635 170.252 64.4945Z" fill="url(#paint3_linear_1_1449)"/>
<path d="M74.2803 34.2065C74.2803 34.2065 127.356 105.074 140.633 110.933C153.914 116.797 170.562 115.477 172.018 122.275C173.474 129.077 144.145 117.572 148.824 128.064C153.503 138.56 171.737 150.539 171.822 161.105C171.911 171.675 142.808 138.419 142.808 138.419C142.808 138.419 170.229 168.846 161.149 169.565C152.065 170.285 128.578 140.537 128.578 140.537C128.578 140.537 154.851 179.56 146.142 175.996C137.436 172.432 56.6947 79.064 44.2437 69.1838C31.7926 59.3074 74.2803 34.2065 74.2803 34.2065Z" fill="#E27B5A"/>
<path d="M228.677 51.4089C228.677 51.4089 168.141 116.001 154.297 120.366C140.453 124.727 124.053 121.586 121.856 128.18C119.663 134.778 150.077 126.574 144.272 136.492C138.471 146.405 119.033 156.304 117.785 166.8C116.54 177.292 149.118 147.443 149.118 147.443C149.118 147.443 118.518 174.666 127.465 176.379C136.415 178.096 163.028 151.115 163.028 151.115C163.028 151.115 132.625 187.012 141.672 184.427C150.718 181.842 241.228 97.9316 254.687 89.483C268.149 81.0345 228.677 51.4089 228.677 51.4089Z" fill="#FFCEB0"/>
<path d="M177.14 96.2589C177.14 96.2589 195.759 131.515 212.876 135.267C229.989 139.018 266.961 105.551 275.028 88.9736C283.098 72.3997 243.767 22.2433 235.35 15.0292C223.191 13.5449 168.508 64.8316 177.14 96.2589Z" fill="#FB4C47"/>
<path d="M61.6111 9.07386e-05C61.6111 9.07386e-05 122.849 60.353 119.948 76.0235C117.049 91.6973 93.6658 110.472 74.8072 116.621C55.9486 122.766 14.7199 98.0096 14.7199 79.9562C11.7135 49.2963 27.3448 17.4341 61.6111 9.07386e-05Z" fill="#128E5A"/>
<defs>
<linearGradient id="paint0_linear_1_1449" x1="12.1175" y1="197.256" x2="23.6696" y2="244.286" gradientUnits="userSpaceOnUse">
<stop stop-color="#FFD0D0"/>
<stop offset="1" stop-color="#FFF8F8"/>
</linearGradient>
<linearGradient id="paint1_linear_1_1449" x1="302.553" y1="74.1123" x2="131.76" y2="27.8715" gradientUnits="userSpaceOnUse">
<stop stop-color="#FFF8F8"/>
<stop offset="1" stop-color="#FFD0D0"/>
</linearGradient>
<linearGradient id="paint2_linear_1_1449" x1="265.633" y1="75.7431" x2="209.187" y2="47.4761" gradientUnits="userSpaceOnUse">
<stop stop-color="#FFD0D0"/>
<stop offset="1" stop-color="#FFF7F7"/>
</linearGradient>
<linearGradient id="paint3_linear_1_1449" x1="252.157" y1="219.179" x2="32.7698" y2="70.2202" gradientUnits="userSpaceOnUse">
<stop stop-color="#FFCFCF"/>
<stop offset="1" stop-color="#FFF8F8"/>
</linearGradient>
</defs>
</svg>
